<?xml version="1.0" standalone="no"?>
<!DOCTYPE svg PUBLIC "-//W3C//DTD SVG 20010904//EN"
 "http://www.w3.org/TR/2001/REC-SVG-20010904/DTD/svg10.dtd">
<svg version="1.0" xmlns="http://www.w3.org/2000/svg"
 width="1000.000000pt" height="1000.000000pt" viewBox="0 0 1000.000000 1000.000000"
 preserveAspectRatio="xMidYMid meet">
<metadata>
Created by potrace 1.11, written by Peter Selinger 2001-2013
</metadata>
<g transform="translate(0.000000,1000.000000) scale(0.100000,-0.100000)"
fill="#000000" stroke="none">
<path d="M1360 8775 l0 -1135 2585 0 2585 0 0 1135 0 1135 -2585 0 -2585 0 0
-1135z"/>
<path d="M6680 8780 l0 -1130 980 0 980 0 0 1130 0 1130 -980 0 -980 0 0
-1130z"/>
<path d="M1360 3780 l0 -3690 2585 0 2585 0 0 3690 0 3690 -2585 0 -2585 0 0
-3690z"/>
<path d="M6680 3780 l0 -3690 980 0 980 0 0 3690 0 3690 -980 0 -980 0 0
-3690z"/>
</g>
</svg>
