<?xml version="1.0" standalone="no"?>
<!DOCTYPE svg PUBLIC "-//W3C//DTD SVG 20010904//EN"
 "http://www.w3.org/TR/2001/REC-SVG-20010904/DTD/svg10.dtd">
<svg version="1.0" xmlns="http://www.w3.org/2000/svg"
 width="1000.000000pt" height="1000.000000pt" viewBox="0 0 1000.000000 1000.000000"
 preserveAspectRatio="xMidYMid meet">
<metadata>
Created by potrace 1.11, written by Peter Selinger 2001-2013
</metadata>
<g transform="translate(0.000000,1000.000000) scale(0.100000,-0.100000)"
fill="#000000" stroke="none">
<path d="M1415 9912 l-60 -3 2 -1122 c1 -617 2 -1127 2 -1133 1 -8 738 -11
2586 -11 l2585 0 1 56 c0 71 0 2146 0 2186 l-1 30 -2528 0 c-1390 0 -2554 -1
-2587 -3z"/>
<path d="M6715 9910 l-40 -5 0 -1130 0 -1130 984 0 984 0 1 1123 c1 618 -2
1128 -5 1134 -6 10 -1847 18 -1924 8z"/>
<path d="M1379 7470 l-24 -5 0 -3688 c0 -3680 0 -3687 20 -3688 132 -4 5147 0
5152 4 7 8 7 7366 0 7374 -7 7 -5113 10 -5148 3z"/>
<path d="M6687 7470 c-16 -6 -18 -7380 -2 -7381 5 0 446 0 979 -1 650 0 970 3
975 10 8 13 6 7360 -2 7368 -8 8 -1932 11 -1950 4z"/>
</g>
</svg>
